<svg version="1.0" xmlns="http://www.w3.org/2000/svg"
 width="48.000000pt" height="48.000000pt" viewBox="0 0 48.000000 48.000000"
 preserveAspectRatio="xMidYMid meet">

<g transform="translate(0.000000,48.000000) scale(0.100000,-0.100000)"
fill="#000000" stroke="none">
<path d="M175 406 c-17 -7 -37 -21 -45 -32 -14 -17 -14 -18 1 -6 10 7 34 21
55 32 44 22 35 26 -11 6z"/>
<path d="M313 365 c15 -22 23 -41 19 -43 -5 -1 -7 -13 -5 -26 3 -13 -1 -27 -8
-31 -9 -6 -11 -2 -7 13 10 35 -17 48 -48 23 -20 -16 -30 -18 -35 -10 -4 7 -14
9 -23 6 -8 -3 -18 -2 -21 3 -9 15 -22 12 -29 -5 -8 -21 3 -45 21 -45 9 0 13
-6 10 -14 -3 -8 2 -16 14 -19 13 -3 17 -11 13 -21 -7 -18 -24 -22 -24 -5 0 5
-4 8 -8 5 -9 -6 -34 20 -52 55 -7 12 -12 40 -12 63 1 28 -2 36 -8 26 -6 -8
-10 -31 -10 -51 0 -21 -7 -42 -16 -49 -8 -8 -14 -25 -12 -39 2 -20 9 -27 31
-29 20 -2 27 1 27 13 0 13 9 10 39 -14 21 -17 47 -31 56 -31 13 0 16 -7 13
-29 -2 -17 -1 -28 4 -25 4 3 8 16 8 30 0 15 6 24 16 24 8 0 12 5 9 10 -3 5 -2
10 3 10 16 0 84 69 77 79 -3 5 -1 12 4 15 10 6 0 60 -17 91 -5 11 -20 29 -33
40 -20 18 -20 16 4 -20z m-194 -139 c15 -18 3 -46 -20 -46 -13 0 -19 7 -19 23
0 37 18 48 39 23z"/>
<path d="M383 232 c12 -18 -3 -44 -18 -32 -9 7 -14 7 -18 -2 -3 -9 6 -14 24
-15 25 -2 29 2 29 22 0 13 -5 27 -12 31 -6 4 -8 3 -5 -4z"/>
<path d="M326 162 c-2 -4 -1 -14 5 -22 7 -12 9 -10 9 8 0 23 -5 28 -14 14z"/>
<path d="M147 153 c-9 -9 -9 -71 1 -76 4 -3 7 15 7 39 0 24 0 44 -1 44 0 0 -4
-3 -7 -7z"/>
<path d="M308 98 c-10 -10 -14 -18 -9 -18 10 0 36 29 30 34 -2 1 -12 -6 -21
-16z"/>
<path d="M210 60 l-25 -8 25 0 c14 0 34 3 45 8 l20 9 -20 -1 c-11 0 -31 -4
-45 -8z"/>
</g>
</svg>
